# xmcd CD database file
#
# Track frame offsets:
#	150
#	21426
#	41927
#	63065
#	82565
#	106412
#	124890
#	136618
#	163096
#	180270
#	201005
#	219677
#	234105
#
# Disc length: 3328 seconds
#
# Revision: 1
# Processed by: cddbd v1.5.2PL0 Copyright (c) Steve Scherf et al.
# Submitted via: CDex 1.51
#
DISCID=a20cfe0d
DTITLE=Pete Cornelius and the Devilles - Suburban Hell
DYEAR=2008
DGENRE=Blues
TTITLE0=Missin' You
TTITLE1=Done Got Over It
TTITLE2=Dirty Little Mama
TTITLE3=Coal Miner
TTITLE4=Suburban Hell
TTITLE5=Whats Wrong
TTITLE6=Whiskey Drinkin Woman
TTITLE7=Hard Times
TTITLE8=3 O'Clock
TTITLE9=No Good Woman
TTITLE10=Love Locks
TTITLE11=Don't Go
TTITLE12=Playboy Blues
EXTD=YEAR: 2008
EXTT0=
EXTT1=
EXTT2=
EXTT3=
EXTT4=
EXTT5=
EXTT6=
EXTT7=
EXTT8=
EXTT9=
EXTT10=
EXTT11=
EXTT12=
PLAYORDER=
